<svg xmlns="http://www.w3.org/2000/svg" viewBox="0 0 750 500"><g id="freepik--Shadow--inject-39"><path d="M517.77,199.42l-.52-.18.33-3.94a.51.51,0,0,0-.11-.35.47.47,0,0,0-.33-.17l-83.69-7.1a.48.48,0,0,0-.36.12.51.51,0,0,0-.17.32L429.3,230.8c-4.73-3.2-14.43-9-23.53-14.24-1.15-1.89-2.06-3.33-2.51-4a16.29,16.29,0,0,0-3.14-3.22,7.92,7.92,0,0,0,1.68-1.43c3.25-4,6.62-11.84,6.75-12.15l1.2-2.5a7,7,0,0,0,2.95.7,4.07,4.07,0,0,0,2.4-.69c2.35-1.72,8.51-13.24,5.66-17.32a2.85,2.85,0,0,0-2.12-1.27l2.78-5.82a104.27,104.27,0,0,0,11.34,1.73c10.73.81,16.38,1.07,19.37,1.07,3.28,0,3.34-.31,3.39-.54s-.13-.56-.57-.7c-2.17-.73-19.07-10.17-21.46-12.16a48.41,48.41,0,0,1-5.17-5.51c.43-3.72,3.09-28.33-.34-31.95-3.67-3.87-36.8-16.08-41.6-16.79-5.05-.75-12.67,2-15.38,5.54l-.06.11c-2,4.68-4.55,10.45-6.81,15.49h0c-2.85,6.37-4.69,10.25-5.45,11.53,0,0,0,.05,0,.08a1.74,1.74,0,0,1-.17.24c-1.43.87-27.78,3.92-30.32,3.92-.73,0-.86.41-.88.59-.19,1.53,9,6,29.52,11.67-.22,1.62-.53,3.91-.88,6.51-3.6-.67-5.91-.62-7,.15a1.77,1.77,0,0,0-.77,1.3,11.2,11.2,0,0,0,.81,4.6c0,.84.12,6.52,1.9,9.29a8.54,8.54,0,0,0,2.69,2.49c-.09.69-.17,1.33-.24,1.89a78.78,78.78,0,0,0-.11,15.27l-5.91-1.23h0a.5.5,0,0,0-.21,0s0,0-.06,0a.25.25,0,0,0-.09,0l-1.66,1.26-10.7-3.57a.51.51,0,0,0-.49.11l-7.72,7.52a.53.53,0,0,0-.15.33l-.11,3-22,6.42c-11.94,3-24.38,6.46-24.83,8.11-.71,2.58-3.53,26.16-3.63,28a45.22,45.22,0,0,1-3.57,3.84c-5.84,5.93-10.64,11-10.14,13.2.67,2.91,3.77,13.68,4.28,15.44-1.35,1.87-10.95,15.52-8.32,20.3,3.18,5.79,9.09,16.1,12.83,20.08,3.11,3.31,5.82,4.79,9,4.79a13,13,0,0,0,2.75-.32c.52-.12,2.54-.4,5.68-.81L265.72,433.42a.47.47,0,0,0,.48.57H427.69a.48.48,0,0,0,.34-.14.44.44,0,0,0,.14-.35l-2.43-100.2a59.21,59.21,0,0,0,8.84,10.31c8.58,7.87,17.27,14.88,17.35,14.95a.5.5,0,0,0,.31.1.47.47,0,0,0,.34-.14l.21-.21a68,68,0,0,0,11.94-16.9c.15-.3.29-.6.43-.91,2.88-.22,5.49-.53,6-.6l1.05.27c.69,2.14,1.27,3.57,1.66,3.76a9.1,9.1,0,0,0,3.59.59,9.46,9.46,0,0,0,3.42-.52,19.28,19.28,0,0,0,3.61.41,4.06,4.06,0,0,0,2.71-.7,6.51,6.51,0,0,0,3.3,1.38,1.94,1.94,0,0,0,.89-.2c.81-.4,2.08-3,3.27-6,.47,2.18,1.35,5.79,2.37,7.32a3.17,3.17,0,0,0,2.72,1.49H500a3.6,3.6,0,0,0,2.94-1.77c.83-1.67-.76-14.46-1.2-15.35s-2.85-1.6-4-1.86c.14-4-6.7-6.44-7.7-6.77-1.25-1.38-8.46-4.76-10.1-5.53-.94-.88-7.51-6.29-9.55-6.8s-4.6.42-6.47,2.3a.44.44,0,0,0-.14.34,10,10,0,0,0-1.56,1.35c-.15.17-.34.36-.54.56a47.09,47.09,0,0,1-5.43-4.57,20.59,20.59,0,0,0-3-3.27c.06-.23.16-.56.27-.95l53.84,4.57h0a.48.48,0,0,0,.48-.44l5.79-68.29,1.22-.49a3.09,3.09,0,0,0,2-2.62l3-35.43A3.11,3.11,0,0,0,517.77,199.42Z" style="opacity:0.38"></path></g><g id="freepik--Character--inject-39"><path d="M378.73,226.79l17.39,63.85s6.21.25,6.46,1.74-2.23,9.94-2.23,9.94a24.1,24.1,0,0,1,3.23,3.47C404.32,307,415,315,415,315s4,4-.25,17.14-14.91,23.6-14.91,23.6-8.94-7.2-17.89-15.4a60.33,60.33,0,0,1-13.17-17.64s-3.72-38.76-3.47-43.73S378.73,226.79,378.73,226.79Z" style="fill:#263238;stroke:#263238;stroke-linecap:round;stroke-linejoin:round"></path><path d="M379.49,311.34c3.19-4.36,7.7-10.19,9.68-11.26,3.23-1.74,8.94,1.74,8.94,1.74" style="fill:none;stroke:#263238;stroke-linecap:round;stroke-linejoin:round"></path><path d="M376,316.23s1-1.39,2.38-3.36" style="fill:none;stroke:#263238;stroke-linecap:round;stroke-linejoin:round"></path><path d="M392.15,291.88s-9.19-.25-13.67,6.21" style="fill:none;stroke:#263238;stroke-linecap:round;stroke-linejoin:round"></path><path d="M414.76,332.13C419,319,415,315,415,315l-2.16-1.62-.58.37s-12.67,2.49-17.14,6.71-6.21,14.16-3.73,18.88,8.45,16.4,8.45,16.4l0,0C400.6,355,410.68,344.83,414.76,332.13Z" style="fill:#263238;stroke:#263238;stroke-linecap:round;stroke-linejoin:round"></path><path d="M273.14,194.24l-40,11.68,3.48,83.23L207.8,433.49H374.51l-3.73-154s8.2-51.18,8-52.67-38-23.11-38-23.11S293,189.77,273.14,194.24Z" style="fill:#EDE5D9;stroke:#263238;stroke-linecap:round;stroke-linejoin:round"></path><polygon points="280.12 433.49 220.98 367.51 207.8 433.49 280.12 433.49" style="fill:#263238;stroke:#263238;stroke-linecap:round;stroke-linejoin:round"></polygon><line x1="302.92" y1="418.8" x2="301.45" y2="431.43" style="fill:none;stroke:#263238;stroke-linecap:round;stroke-linejoin:round"></line><line x1="315.18" y1="313.42" x2="303.7" y2="412.08" style="fill:none;stroke:#263238;stroke-linecap:round;stroke-linejoin:round"></line><polyline points="357.86 218.34 377.49 230.76 376 225.05 356.12 212.88" style="fill:none;stroke:#263238;stroke-linecap:round;stroke-linejoin:round"></polyline><path d="M289.51,187.66l-11.32-3.78-8,7.76-1.47,40.49,25.8,2.72s-21.4,20.77-18,25,23.49,23.7,37.34,30.62,10.28,5.67,10.28,5.67L329,282.89s-31.68-80.76-31.88-81.39S289.51,187.66,289.51,187.66Z" style="fill:#EDE5D9;stroke:#263238;stroke-linecap:round;stroke-linejoin:round"></path><path d="M329,282.89l-12.38,26.85s19.3-13.21,34.2-30.21,18.66-24.54,17-28.52-18.88-15.95-18.88-15.95,15.31,1.89,16.57,1.05S352,210.31,348.88,205.7s-13.43-9.65-13.43-9.65S340.7,249.75,329,282.89Z" style="fill:#EDE5D9;stroke:#263238;stroke-linecap:round;stroke-linejoin:round"></path><path d="M372.24,359.84V339.69l-1.46-60.23s8.2-51.18,8-52.67c-.15-.92-14.54-9.47-25.57-15.91-3.62-2.11-9.54-13.81-11.06-7.85l-9.88,56-16,45.44L268.44,253.6l-36.81,60.56-.39,1.92Z" style="fill:#263238;stroke:#263238;stroke-linecap:round;stroke-linejoin:round"></path><path d="M291.4,186.19l10.07,2.1,17.41,31S294.76,194.79,291.4,186.19Z" style="fill:#fff;stroke:#263238;stroke-linecap:round;stroke-linejoin:round"></path><path d="M284.48,191.43s5.24,24.34,19.09,46.78,26.22,40.28,26.22,40.28,12.58-24.76,13.42-34.83,0-25.59,0-25.59Z" style="fill:#fff;stroke:#263238;stroke-linecap:round;stroke-linejoin:round"></path><polygon points="315.52 232.76 326.85 245.13 322.24 259.4 329.16 272.19 337.97 255.2 331.89 243.04 339.02 231.08 327.9 221.85 315.52 232.76" style="fill:#263238;stroke:#263238;stroke-linecap:round;stroke-linejoin:round"></polygon><path d="M329.58,227.09,310.7,239.26s-11.33-14.89-17.62-26.85a107.42,107.42,0,0,1-8.6-21l6.92-5.24S313.22,217,329.58,227.09Z" style="fill:#fff;stroke:#263238;stroke-linecap:round;stroke-linejoin:round"></path><path d="M329.58,227.09l13.84,12.38s2.73-13.22,1.26-20.56-2.93-13.42-2.93-13.42S335.24,222.69,329.58,227.09Z" style="fill:#fff;stroke:#263238;stroke-linecap:round;stroke-linejoin:round"></path><path d="M309,209.68s11.54,10.49,15.31,13.22c1.3.93,5.25,4.19,5.25,4.19s4.3-5,5.24-6.29c2.52-3.57,5.67-8.6,5.67-8.6l5-12.59Z" style="fill:#263238;stroke:#263238;stroke-linecap:round;stroke-linejoin:round"></path><path d="M284.48,191.43s16.78,34,29.16,51S330,270.31,330,270.31s10.28-20.77,11.54-26.85,2.93-28.11,2.93-28.11,3.57,18-1.47,36.5a106.43,106.43,0,0,1-14.05,31s-21.4-33.35-30.21-48.45S284.48,191.43,284.48,191.43Z" style="fill:#263238;stroke:#263238;stroke-linecap:round;stroke-linejoin:round"></path><path d="M302.17,141.65s-3,21.52-3.95,29.62-.2,18.76,1,22.31,5.92,18.37,9.87,19.16,8.1,1.38,11.26-.4,23.7-7.9,27.05-12,6.91-12.44,6.91-12.44l15.21-31.8Z" style="fill:#fff;stroke:#263238;stroke-linecap:round;stroke-linejoin:round"></path><path d="M358.45,155.87s-5.92,6.12-3.95,7.1,3.36,1.78,3.36,1.78-3,4.94-2.17,5.73,7.7-1.58,7.7-1.58l5.33-11.46Z" style="fill:#263238;stroke:#263238;stroke-linecap:round;stroke-linejoin:round"></path><path d="M315.89,157a60.08,60.08,0,0,0-12.54-5c-6.07-1.47-10.25-1.67-10.46.42a11.34,11.34,0,0,0,.84,4.6s0,6.48,1.88,9.41,7.11,4.81,11.29,5,6.48-1.05,7.74-3.14c.86-1.44,2-5.82,2.66-8.44a2.48,2.48,0,0,0-1.41-2.85Z" style="fill:#263238;stroke:#263238;stroke-linecap:round;stroke-linejoin:round"></path><path d="M325.27,159.72A65.74,65.74,0,0,1,339.94,161c6.62,1.55,10.79,3.4,10,5.53a12.38,12.38,0,0,1-3.07,4.07s-3.18,6.31-6.44,8.23-9.28,1.2-13.45-.65-5.8-4.2-6-6.85c-.14-1.82.89-6.65,1.55-9.51a2.7,2.7,0,0,1,2.76-2.09Z" style="fill:#263238;stroke:#263238;stroke-linecap:round;stroke-linejoin:round"></path><path d="M315.89,157l9.38,2.72-2.76,2.09s-3.7-1.65-5.2-1.26C317.31,160.55,317.71,157.79,315.89,157Z" style="fill:#263238;stroke:#263238;stroke-linecap:round;stroke-linejoin:round"></path><path d="M349.3,165.08l14.86,2.3-.77,1.52-15.82.79S350.6,167.38,349.3,165.08Z" style="fill:#263238;stroke:#263238;stroke-linecap:round;stroke-linejoin:round"></path><path d="M357.66,171.66s6.52-7.7,9.28-3.75-3.55,15.6-5.72,17.18-6.52-.2-6.52-1.58" style="fill:#fff;stroke:#263238;stroke-linecap:round;stroke-linejoin:round"></path><path d="M326.65,157.57s11.54-2.74,19.33,2.31" style="fill:none;stroke:#263238;stroke-linecap:round;stroke-linejoin:round"></path><path d="M307.75,149.93a11.46,11.46,0,0,1,9.09,5" style="fill:none;stroke:#263238;stroke-linecap:round;stroke-linejoin:round"></path><path d="M315.25,166.81s-7.5,14.71-7.79,16.15,6.06,2.89,9,3,3-1.29,3-1.29" style="fill:none;stroke:#263238;stroke-linecap:round;stroke-linejoin:round"></path><line x1="309.48" y1="193.78" x2="314.68" y2="195.23" style="fill:none;stroke:#263238;stroke-linecap:round;stroke-linejoin:round"></line><path d="M316.39,99.39s-11.85,27.45-13,28.43-29,4.15-31.59,4.15,6.32,5.92,40.09,14.42,57.46,14.41,67.93,15.2,25.08,1.58,22.71.79-19.95-10.66-22.32-12.64a52.06,52.06,0,0,1-5.53-5.92s3.36-29-.19-32.78-37.33-16.39-42.66-17.18S319,96,316.39,99.39Z" style="fill:#EDE5D9;stroke:#263238;stroke-linecap:round;stroke-linejoin:round"></path><path d="M350.71,121a14,14,0,0,0,4.78.87" style="fill:none;stroke:#263238;stroke-linecap:round;stroke-linejoin:round"></path><path d="M362.8,114.2S334.16,99,334.56,105.9c.27,4.82,6.79,10.8,13.19,13.9" style="fill:none;stroke:#263238;stroke-linecap:round;stroke-linejoin:round"></path><path d="M309.35,115.4c-2.41,5.36-4.73,10.39-5.66,11.95,3.78,2.19,10.22,5.17,21.19,8.77,24.68,8.09,49.76,7.7,49.76,7.7s.61-5.23,1-11.53l-29.46-5.45A160.92,160.92,0,0,1,309.35,115.4Z" style="fill:#263238;stroke:#263238;stroke-linecap:round;stroke-linejoin:round"></path><line x1="316.09" y1="119.96" x2="314.02" y2="125.06" style="fill:none;stroke:#fff;stroke-linecap:round;stroke-linejoin:round"></line><line x1="323.57" y1="101.51" x2="316.09" y2="119.96" style="fill:none;stroke:#263238;stroke-linecap:round;stroke-linejoin:round"></line><line x1="325.47" y1="96.82" x2="324.11" y2="100.18" style="fill:none;stroke:#263238;stroke-linecap:round;stroke-linejoin:round"></line><path d="M456.82,305.39l-86.4-7.32,10-117.84,86.4,7.33-.38,4.45.9.31a2.73,2.73,0,0,1,1.83,2.8l-3.1,36.57a2.73,2.73,0,0,1-1.7,2.29l-1.54.61Z" style="fill:#fff;stroke:#263238;stroke-linecap:round;stroke-linejoin:round"></path><path d="M346.43,274.74s18.64-26.58,19.63-27.08,19.63-3.23,20.87-3.48,14.91,4,14.91,4,1.24,2-.5,3.23l-1.74,1.24a17.76,17.76,0,0,1,1.24,4.22c0,1.24-1.49,3-1.49,3s1,3-.25,4.23-11.42,3.47-12.17,3.72-7,5.72-7,5.72,9.2-1.25,12.18-1.74,5.22.49,4.47,2.73-3.48,3-5.71,3.48-15.41,4.22-15.41,4.22-10.43,8.7-15.65,10.19-14.91,3.23-14.91,3.23Z" style="fill:#a1a1a1;stroke:#263238;stroke-linecap:round;stroke-linejoin:round"></path><polyline points="399.6 252.63 385.94 251.14 371.53 254.37" style="fill:none;stroke:#263238;stroke-linecap:round;stroke-linejoin:round"></polyline><polyline points="399.35 259.83 387.68 258.84 373.27 265.05" style="fill:none;stroke:#263238;stroke-linecap:round;stroke-linejoin:round"></polyline><polygon points="337.24 270.76 348.67 271.51 346.93 299.83 334.51 300.08 337.24 270.76" style="fill:#a1a1a1;stroke:#263238;stroke-linecap:round;stroke-linejoin:round"></polygon><path d="M266.68,197.22s-44.22,9.94-45,12.68S218,237.72,218,238.71s-14.91,14.17-14.16,17.4,4.47,16.14,4.47,16.14-11.43,15.66-8.7,20.63,9.2,16.39,13.17,20.62S220,319,224.45,318s112.3-13.67,112.3-13.67l3.23-34-73.54-6s2-13.41,2.23-16.39-4.22-9.69-8.69-15.9" style="fill:#EDE5D9;stroke:#263238;stroke-linecap:round;stroke-linejoin:round"></path><path d="M214.54,275c-2.26,1.84-3.89,3.4-4.25,4.21" style="fill:none;stroke:#263238;stroke-linecap:round;stroke-linejoin:round"></path><path d="M262.71,263.81s-23.6-.75-29.57.25c-3.16.52-9,4-14.07,7.53" style="fill:none;stroke:#263238;stroke-linecap:round;stroke-linejoin:round"></path><path d="M230.41,261.07s-15.9,2-15.4-.74,10.18-3.73,18.38-3.23a39.23,39.23,0,0,1,14.91,4.22" style="fill:none;stroke:#263238;stroke-linecap:round;stroke-linejoin:round"></path><path d="M254.61,236.73c-3.79-3.67-8.66-7.95-10.78-7.95-3.73,0-17.39,5-17.39,5" style="fill:none;stroke:#263238;stroke-linecap:round;stroke-linejoin:round"></path><path d="M259.73,241.94s-1.37-1.48-3.34-3.45" style="fill:none;stroke:#263238;stroke-linecap:round;stroke-linejoin:round"></path><path d="M262.24,209.38l3.45-1.72" style="fill:none;stroke:#263238;stroke-linecap:round;stroke-linejoin:round"></path><path d="M257.49,200.21s-26.58,9.44-25.34,10.93,8.2,8,9.94,7.7c1.09-.16,10.06-4.5,16.62-7.73" style="fill:none;stroke:#263238;stroke-linecap:round;stroke-linejoin:round"></path><path d="M244.82,212.38c0,1.23-1.44,2.24-3.23,2.24s-3.23-1-3.23-2.24,1.45-2.24,3.23-2.24S244.82,211.14,244.82,212.38Z" style="fill:none;stroke:#263238;stroke-linecap:round;stroke-linejoin:round"></path><path d="M392.15,325.17s14.9-11.43,18.38-15.15,7.7-3,9.2-2,19.37,18.88,20.86,20.37-1,7.46-1,7.46-8,2-11.43,2a40.44,40.44,0,0,1-8.69-1.49s-11.68,1.49-14.66.5S392.15,325.17,392.15,325.17Z" style="fill:#a1a1a1;stroke:#263238;stroke-linecap:round;stroke-linejoin:round"></path><path d="M398.86,324.43s13.16,10.43,12.92,11.43-6,5.21-7.95,5.21-13.42-10.93-14.41-12.67,5.46-4.22,6.21-4.47" style="fill:#a1a1a1;stroke:#263238;stroke-linecap:round;stroke-linejoin:round"></path><path d="M414.76,312.5s6.21,27.33,7.7,28.08a11.16,11.16,0,0,0,7,0c1.5-.75-.49-26.84-1.24-27.58s-7.7-6.46-9.69-7-4.47.5-6.21,2.24" style="fill:#a1a1a1;stroke:#263238;stroke-linecap:round;stroke-linejoin:round"></path><path d="M428.17,313s9.69,4.47,10.44,5.71-2.24,19.63-2.74,21.37-6.46.5-6.46.5Z" style="fill:#a1a1a1;stroke:#263238;stroke-linecap:round;stroke-linejoin:round"></path><path d="M438.61,318.71s8.44,2.74,7.7,7-4.72,15.15-6.21,15.9-4.23-1.49-4.23-1.49Z" style="fill:#a1a1a1;stroke:#263238;stroke-linecap:round;stroke-linejoin:round"></path><path d="M446.31,325.67s3.73.75,4.22,1.74,2,13.91,1.24,15.4-3.72,2.49-5.21.25-2.74-9.19-2.74-9.19Z" style="fill:#a1a1a1;stroke:#263238;stroke-linecap:round;stroke-linejoin:round"></path><path d="M391.1,225.11,389.45,214l-2.11.31-.19-1.29,5.89-.87.19,1.29-2,.3,1.65,11.16Z" style="fill:#EDE5D9"></path><path d="M399.29,224a3.76,3.76,0,0,1-2.09-.19,2.78,2.78,0,0,1-1.29-1.25,6.93,6.93,0,0,1-.64-2.1l-.7-4.72a6.19,6.19,0,0,1,0-2.16,2.72,2.72,0,0,1,.88-1.52,3.8,3.8,0,0,1,1.94-.76,3.6,3.6,0,0,1,2.07.18,2.7,2.7,0,0,1,1.27,1.19,6.25,6.25,0,0,1,.64,2.06l.7,4.74a6.27,6.27,0,0,1,0,2.17,2.8,2.8,0,0,1-.86,1.56A3.47,3.47,0,0,1,399.29,224Zm-.21-1.37a1.67,1.67,0,0,0,1-.44,1.5,1.5,0,0,0,.36-.87,5.26,5.26,0,0,0-.06-1.22l-.81-5.46a5.47,5.47,0,0,0-.3-1.18,1.31,1.31,0,0,0-.59-.69,1.66,1.66,0,0,0-1.08-.12,1.79,1.79,0,0,0-1,.43,1.36,1.36,0,0,0-.37.84,5.19,5.19,0,0,0,.06,1.21l.8,5.46a4.92,4.92,0,0,0,.31,1.18,1.34,1.34,0,0,0,.6.73A1.63,1.63,0,0,0,399.08,222.67Z" style="fill:#EDE5D9"></path><path d="M404.37,223.15l-1.84-12.46,3.09-.46a3.52,3.52,0,0,1,1.85.14,2.46,2.46,0,0,1,1.15,1,4.88,4.88,0,0,1,.58,1.81,3.92,3.92,0,0,1-.09,1.76,2.56,2.56,0,0,1-.86,1.27,3.41,3.41,0,0,1-1.63.64l-1.37.2.86,5.8Zm.7-7.3.8-.12a3.33,3.33,0,0,0,1.15-.35,1.07,1.07,0,0,0,.53-.68,3,3,0,0,0,0-1.22,6,6,0,0,0-.33-1.35,1,1,0,0,0-.65-.58,3.39,3.39,0,0,0-1.32,0l-.81.12Z" style="fill:#EDE5D9"></path><path d="M418.23,221.24a3.3,3.3,0,0,1-1.86-.2,2.92,2.92,0,0,1-1.27-1.12,5.06,5.06,0,0,1-.71-1.82l1.47-.65a7.29,7.29,0,0,0,.4,1.25,2.35,2.35,0,0,0,.68.93,1.4,1.4,0,0,0,1.09.24,1.34,1.34,0,0,0,1-.53,1.54,1.54,0,0,0,.19-1.14,2.22,2.22,0,0,0-.59-1.3,6.64,6.64,0,0,0-1.12-.89l-2.36-1.54a3.48,3.48,0,0,1-1.08-1,3.78,3.78,0,0,1-.53-1.54,2.83,2.83,0,0,1,.47-2.23,3,3,0,0,1,2-1.07,3.65,3.65,0,0,1,1.32,0,2.24,2.24,0,0,1,1,.45,3,3,0,0,1,.75.92,5.53,5.53,0,0,1,.51,1.38l-1.42.61a6.46,6.46,0,0,0-.35-1.1,1.72,1.72,0,0,0-.61-.76,1.49,1.49,0,0,0-1-.17,1.4,1.4,0,0,0-.95.5,1.35,1.35,0,0,0-.21,1.08,1.88,1.88,0,0,0,.33.9,2.83,2.83,0,0,0,.73.67l2.38,1.53a6.79,6.79,0,0,1,1.47,1.28,3.76,3.76,0,0,1,.83,2,3.06,3.06,0,0,1-.14,1.64,2.67,2.67,0,0,1-.91,1.18A3.36,3.36,0,0,1,418.23,221.24Z" style="fill:#EDE5D9"></path><path d="M422.55,220.46,420.7,208l4.83-.72.19,1.3-3.09.45.61,4.13,2.51-.38.18,1.23-2.51.38.68,4.56,3.12-.46.19,1.25Z" style="fill:#EDE5D9"></path><path d="M432,219.21a3.43,3.43,0,0,1-2.14-.25,2.89,2.89,0,0,1-1.23-1.35,7.17,7.17,0,0,1-.6-2l-.65-4.4a7.73,7.73,0,0,1,0-2.24,2.69,2.69,0,0,1,.8-1.61,3.59,3.59,0,0,1,2-.82,3.52,3.52,0,0,1,1.91.16,2.45,2.45,0,0,1,1.17,1.08,5.55,5.55,0,0,1,.58,1.88l.15,1-1.65.24-.13-.88a8.27,8.27,0,0,0-.25-1.21,1.29,1.29,0,0,0-.5-.77,1.46,1.46,0,0,0-1.07-.13,1.31,1.31,0,0,0-1.33,1.43,8.66,8.66,0,0,0,.09,1.36l.74,4.93a5.47,5.47,0,0,0,.37,1.46,1.28,1.28,0,0,0,.62.7,1.74,1.74,0,0,0,1,.09,1.37,1.37,0,0,0,1-.46,1.5,1.5,0,0,0,.25-.93,9.48,9.48,0,0,0-.11-1.3l-.14-.92,1.65-.25.13.93a6.37,6.37,0,0,1,0,2,2.56,2.56,0,0,1-.75,1.5A3.3,3.3,0,0,1,432,219.21Z" style="fill:#EDE5D9"></path><path d="M436.72,218.36l-1.84-12.46,2.51-.37a5.64,5.64,0,0,1,2.11,0,2.31,2.31,0,0,1,1.36.88,4.19,4.19,0,0,1,.68,1.85,5.58,5.58,0,0,1,0,1.34,2.55,2.55,0,0,1-.35,1.07,1.89,1.89,0,0,1-.8.73l2.69,6-1.68.25-2.49-5.6-1.35.2.86,5.84Zm.69-7.35.66-.1a3.11,3.11,0,0,0,1.17-.36,1.26,1.26,0,0,0,.59-.73,2.94,2.94,0,0,0,0-1.28,2.5,2.5,0,0,0-.63-1.51,2,2,0,0,0-1.66-.25l-.77.11Z" style="fill:#EDE5D9"></path><path d="M444.7,217.18l-1.84-12.46,4.83-.71.19,1.29-3.09.45.61,4.13,2.51-.38.18,1.23-2.51.38.68,4.56,3.12-.46.18,1.25Z" style="fill:#EDE5D9"></path><path d="M452.33,216.05l-1.65-11.17-2.11.31-.19-1.29,5.89-.87.19,1.29-2,.31,1.65,11.16Z" style="fill:#EDE5D9"></path><path d="M389.39,229.5a4.7,4.7,0,0,1-4.64-4l-1.8-13a4.7,4.7,0,0,1,4-5.29L428,201.48l.15,1.05-41.06,5.71a3.63,3.63,0,0,0-3.09,4.1l1.8,13a3.64,3.64,0,0,0,4.1,3.1l8.64-1.2.14,1-8.64,1.2A4.82,4.82,0,0,1,389.39,229.5Z" style="fill:#EDE5D9"></path><path d="M404.17,227.49l-.14-1.05,51.5-7.16a3.62,3.62,0,0,0,3.09-4.09l-1.8-13a3.63,3.63,0,0,0-4.1-3.09L431.87,202l-.15-1,20.86-2.9a4.68,4.68,0,0,1,5.29,4l1.8,13a4.69,4.69,0,0,1-4,5.29Z" style="fill:#EDE5D9"></path></g></svg>
