<svg width="465" height="124" viewBox="0 0 465 124" fill="none" xmlns="http://www.w3.org/2000/svg">
<g clip-path="url(#clip0_2002_2)">
<path d="M411 3.00005C416.589 2.9588 422.179 2.91755 427.938 2.87505C430.555 2.84774 430.555 2.84774 433.226 2.81988C452.158 2.70204 452.158 2.70204 457.938 7.37505C462.393 13.0454 462.834 17.8972 462 25.0001C460.556 28.9466 458.213 32.2687 455 35.0001C455.577 35.2063 456.155 35.4126 456.75 35.6251C460.669 38.0197 462.576 41.7276 464 46.0001C464.694 53.0823 462.426 57.7937 458.25 63.3126C452.352 67.7362 446.236 68.437 439.125 68.293C438.406 68.29 437.686 68.287 436.945 68.2839C434.297 68.2683 431.648 68.2265 429 68.1876C423.06 68.1257 417.12 68.0638 411 68.0001C411 46.5501 411 25.1001 411 3.00005ZM428 17.0001C428 20.6301 428 24.2601 428 28.0001C430.27 28.108 432.541 28.1856 434.812 28.2501C436.077 28.2965 437.342 28.3429 438.645 28.3907C442.037 28.3346 442.037 28.3346 443.961 26.1485C445.325 23.3273 445.001 21.9268 444 19.0001C442.086 16.6436 442.086 16.6436 438.742 16.8047C436.828 16.8395 436.828 16.8395 434.875 16.8751C433.594 16.8931 432.312 16.9111 430.992 16.9297C430.005 16.9529 429.017 16.9761 428 17.0001ZM428 41.0001C427.973 42.8125 427.954 44.625 427.938 46.4376C427.926 47.4469 427.914 48.4562 427.902 49.4961C427.714 51.9403 427.714 51.9403 429 53.0001C431.101 53.1261 433.207 53.1758 435.312 53.1876C437.039 53.2088 437.039 53.2088 438.801 53.2305C441.824 53.0127 443.466 52.5832 446 51.0001C446.334 47.6257 446.334 47.6257 446 44.0001C443.581 41.3392 442.158 41.0134 438.547 40.7071C437.294 40.7419 436.041 40.7767 434.75 40.8126C433.487 40.8396 432.223 40.8667 430.922 40.8946C429.476 40.9468 429.476 40.9468 428 41.0001Z" fill="#4A4136"/>
<path d="M34 3.00005C39.4244 2.9588 44.8488 2.91755 50.4375 2.87505C52.1306 2.85684 53.8237 2.83863 55.5681 2.81987C74.156 2.70068 74.156 2.70068 79.9375 7.37505C84.5903 13.2968 84.8217 18.5946 84 26C82.5378 29.7743 80.3765 31.749 77 34C77.9488 34.7425 78.8975 35.485 79.875 36.25C82.4351 38.2536 83.8634 39.9296 85 43C85.6526 49.56 86.1838 56.5611 82 62C75.5927 67.1259 69.5831 68.3056 61.5391 68.1954C60.8374 68.1933 60.1358 68.1913 59.4128 68.1893C56.8168 68.1789 54.2209 68.1509 51.625 68.125C45.8088 68.0838 39.9925 68.0425 34 68C34 46.55 34 25.1 34 3.00005ZM51 17C51 20.63 51 24.26 51 28C53.1035 28.0811 55.208 28.1392 57.3125 28.1875C58.4843 28.2224 59.656 28.2572 60.8633 28.293C63.9477 28.2552 63.9477 28.2552 65.9297 26.7149C67.3377 24.8233 67.3377 24.8233 66.8125 21.375C66.4103 19.7044 66.4103 19.7044 66 18C63.1158 16.558 60.5828 16.9061 57.375 16.9375C55.5922 16.9511 55.5922 16.9511 53.7734 16.9649C52.4006 16.9823 52.4006 16.9823 51 17ZM51 41C51 45.29 51 49.58 51 54C53.2716 53.913 55.5423 53.8049 57.8125 53.6875C59.7094 53.6005 59.7094 53.6005 61.6445 53.5118C64.92 53.2571 64.92 53.2571 66.957 51.6797C68.325 49.8246 68.325 49.8246 67.875 46.4375C67.3437 42.7456 67.3437 42.7456 64 41C60.7962 40.7576 60.7962 40.7576 57.3125 40.875C55.2294 40.9163 53.1463 40.9575 51 41Z" fill="#483F33"/>
<path d="M351 3.0001C353.813 2.97326 356.625 2.95334 359.438 2.9376C360.24 2.92923 361.042 2.92085 361.869 2.91221C363.913 2.90359 365.957 2.94782 368 3.0001C369.523 4.52268 369.147 5.88943 369.174 8.01329C369.187 8.86442 369.201 9.71556 369.214 10.5925C369.225 11.5185 369.235 12.4445 369.246 13.3985C369.279 15.3413 369.312 17.284 369.346 19.2267C369.393 22.3035 369.438 25.3802 369.477 28.4571C369.516 31.417 369.568 34.3764 369.621 37.336C369.63 38.258 369.638 39.1799 369.647 40.1298C369.663 40.9873 369.68 41.8447 369.697 42.7281C369.707 43.4823 369.718 44.2366 369.728 45.0136C369.896 47.3174 369.896 47.3174 372 50.0001C376.597 51.5324 380.421 51.7207 384.875 49.6876C387.27 48.1014 387.27 48.1014 388 45.0001C388.113 43.6043 388.176 42.2041 388.205 40.8041C388.235 39.5431 388.235 39.5431 388.266 38.2566C388.291 36.9018 388.291 36.9018 388.316 35.5196C388.337 34.5916 388.358 33.6637 388.379 32.7075C388.445 29.7426 388.504 26.7776 388.563 23.8126C388.606 21.8028 388.649 19.7931 388.693 17.7833C388.8 12.8557 388.902 7.92793 389 3.0001C394.61 3.0001 400.22 3.0001 406 3.0001C406.099 9.40468 406.172 15.8088 406.22 22.214C406.24 24.3905 406.267 26.5669 406.302 28.7433C406.351 31.8811 406.373 35.0182 406.391 38.1564C406.411 39.1213 406.432 40.0862 406.453 41.0803C406.456 49.7019 403.591 56.1444 397.727 62.4571C390.352 69.0476 381.319 68.7177 371.944 68.2296C369.138 67.8984 366.618 67.031 364 66.0001C364 65.3401 364 64.6801 364 64.0001C363.241 63.7578 362.481 63.5154 361.699 63.2657C358.604 61.8142 357.624 60.6062 355.813 57.7501C355.324 57.0024 354.835 56.2548 354.332 55.4845C350.973 49.2197 350.728 43.7379 350.805 36.7892C350.808 35.821 350.81 34.8529 350.813 33.8554C350.824 30.7785 350.85 27.7019 350.875 24.6251C350.885 22.5327 350.894 20.4402 350.902 18.3478C350.924 13.2318 350.959 8.11598 351 3.0001Z" fill="#4B4237"/>
<path d="M153 3C159.6 3 166.2 3 173 3C175.253 7.5054 176.705 11.0202 178.062 15.75C180.675 24.5201 183.996 33 187.346 41.5107C195 61.0318 195 61.0318 195 68C189.39 68 183.78 68 178 68C177.251 65.7214 176.503 63.4427 175.754 61.1641C175.048 58.9897 175.048 58.9897 174 57C166.74 57 159.48 57 152 57C150.68 60.63 149.36 64.26 148 68C142.39 68 136.78 68 131 68C132.125 60.1232 132.125 60.1232 133.199 57.1602C133.554 56.1677 133.554 56.1677 133.916 55.1553C134.17 54.4647 134.425 53.774 134.688 53.0625C135.088 51.9512 135.088 51.9512 135.496 50.8174C137.494 45.2986 139.579 39.8134 141.67 34.3293C144.197 27.6232 146.43 20.821 148.64 14.0049C148.919 13.1525 149.197 12.3001 149.484 11.4219C149.729 10.6649 149.974 9.90787 150.226 9.12793C151 7 151 7 153 3ZM162 24C161.349 26.0401 160.705 28.0822 160.062 30.125C159.523 31.8304 159.523 31.8304 158.973 33.5703C158.081 36.7143 157.466 39.7689 157 43C160.63 43 164.26 43 168 43C169.347 38.958 168.026 36.234 166.688 32.375C166.461 31.6815 166.235 30.988 166.002 30.2734C164.926 26.4129 164.926 26.4129 162 24Z" fill="#494035"/>
<path d="M297.188 6.5C302.596 11.3072 306.986 17.7435 308 25C304.936 25.1353 301.878 25.2342 298.813 25.3125C297.948 25.3544 297.084 25.3963 296.193 25.4394C289.686 25.5641 289.686 25.5641 286.012 22.543C285.348 21.7038 284.684 20.8646 284 20C280.259 18.1295 276.073 18.4581 272 19C268.209 20.6641 265.714 22.5913 263.832 26.3047C262.008 32.2151 262.244 38.6481 264.125 44.5C266.515 47.6867 268.392 49.263 272 51C276.737 51.5931 281.379 51.1925 286 50C286 49.34 286 48.68 286 48C286.66 48 287.32 48 288 48C288.33 47.01 288.66 46.02 289 45C295.27 45 301.54 45 308 45C305.267 54.5653 300.717 60.9683 292 66C287.269 67.9734 282.823 68.3863 277.75 68.375C277.001 68.3734 276.251 68.3718 275.48 68.3701C267.289 68.1897 259.846 66.0038 254 60C247.601 51.8606 244.644 45.4754 244.688 35.125C244.671 34.3606 244.655 33.5962 244.639 32.8086C244.63 22.4531 248.921 15.3933 256 8C267.578 -1.36345 284.6 0.576237 297.188 6.5Z" fill="#483F34"/>
<path d="M90 3C103.2 3 116.4 3 130 3C130 7.62 130 12.24 130 17C122.08 17 114.16 17 106 17C106 20.63 106 24.26 106 28C112.93 28 119.86 28 127 28C127 32.29 127 36.58 127 41C120.07 41 113.14 41 106 41C106 44.96 106 48.92 106 53C107.649 52.9884 109.297 52.9768 110.996 52.9648C113.143 52.9555 115.29 52.9464 117.438 52.9375C118.526 52.9291 119.615 52.9207 120.736 52.9121C121.771 52.9089 122.805 52.9057 123.871 52.9023C124.829 52.8971 125.788 52.8919 126.775 52.8865C129 53 129 53 130 54C130 58.62 130 63.24 130 68C116.8 68 103.6 68 90 68C90 46.55 90 25.1 90 3Z" fill="#483F34"/>
<path d="M310 113C360.82 113 411.64 113 464 113C465 120 465 120 464 124C413.18 124 362.36 124 310 124C310 120.37 310 116.74 310 113Z" fill="#484035"/>
<path d="M194 3C210.5 3 227 3 244 3C244 7.62 244 12.24 244 17C238.72 17 233.44 17 228 17C228 33.83 228 50.66 228 68C222.39 68 216.78 68 211 68C211 51.17 211 34.34 211 17C205.39 17 199.78 17 194 17C194 12.38 194 7.76 194 3Z" fill="#494036"/>
<path d="M312 3C317.61 3 323.22 3 329 3C329.33 19.83 329.66 36.66 330 54C336.6 54 343.2 54 350 54C350 58.62 350 63.24 350 68C337.46 68 324.92 68 312 68C312 46.55 312 25.1 312 3Z" fill="#4B4338"/>
<path d="M0 0C8.91 0 17.82 0 27 0C27 22.44 27 44.88 27 68C21.06 68 15.12 68 9 68C9 50.84 9 33.68 9 16C6.03 16 3.06 16 0 16C0 10.72 0 5.44 0 0Z" fill="#4E453A"/>
<path d="M456 7C456.66 7 457.32 7 458 7C462.287 13.0282 462.474 17.713 462 25C461.67 25 461.34 25 461 25C461 21.7 461 18.4 461 15C459.35 14.67 457.7 14.34 456 14C454.955 10.8665 455.066 10.0103 456 7Z" fill="#665C52"/>
<path d="M287 4C293.523 4.61538 293.523 4.61538 295.938 6.5625C296.288 7.03688 296.639 7.51125 297 8C296.402 8.14437 295.804 8.28875 295.188 8.4375C293.438 8.88724 291.713 9.42892 290 10C289.67 8.68 289.34 7.36 289 6C289 6.66 289 7.32 289 8C288.34 8 287.68 8 287 8C287 6.68 287 5.36 287 4Z" fill="#5A524A"/>
<path d="M295 58C295.66 59.32 296.32 60.64 297 62C295.35 63.32 293.7 64.64 292 66C291.34 65.67 290.68 65.34 290 65C290 63.68 290 62.36 290 61C292.5 59.25 292.5 59.25 295 58Z" fill="#585049"/>
<path d="M67 52C66.67 52.99 66.34 53.98 66 55C61.71 54.67 57.42 54.34 53 54C53 53.67 53 53.34 53 53C54.9582 52.8323 56.9166 52.6659 58.875 52.5C60.5108 52.3608 60.5108 52.3608 62.1797 52.2188C63.7833 52.0944 65.3916 52 67 52Z" fill="#A9A7A3"/>
<path d="M284 51C284.66 51.33 285.32 51.66 286 52C285.34 53.65 284.68 55.3 284 57C283.67 56.34 283.34 55.68 283 55C282.01 55.33 281.02 55.66 280 56C279.67 55.01 279.34 54.02 279 53C279.99 52.67 280.98 52.34 282 52C282.66 51.67 283.32 51.34 284 51Z" fill="#3C342A"/>
<path d="M371 51C374.63 51.33 378.26 51.66 382 52C382 52.33 382 52.66 382 53C378.7 53.33 375.4 53.66 372 54C371.67 53.01 371.34 52.02 371 51Z" fill="#59524B"/>
<path d="M268 3C269.32 3.66 270.64 4.32 272 5C271.67 5.99 271.34 6.98 271 8C269.68 8 268.36 8 267 8C267.33 6.35 267.66 4.7 268 3Z" fill="#393128"/>
</g>
<defs>
<clipPath id="clip0_2002_2">
<rect width="465" height="124" fill="white"/>
</clipPath>
</defs>
</svg>
